<mxfile host="app.diagrams.net" modified="2023-09-18T06:49:33.248Z" agent="Mozilla/5.0 (Windows NT 10.0; Win64; x64) AppleWebKit/537.36 (KHTML, like Gecko) Chrome/113.0.0.0 Safari/537.36" version="21.7.5" etag="AQNlhNuuuJTsPLat0t4D" type="github">
  <diagram name="第 1 页" id="fa7VxcUooh5VeGY-10eW">
    <mxGraphModel>
      <root>
        <mxCell id="0" />
        <mxCell id="1" parent="0" />
      </root>
    </mxGraphModel>
  </diagram>
</mxfile>
